<?xml version="1.0" encoding="utf-8"?>
<!-- Generator: Adobe Illustrator 27.5.0, SVG Export Plug-In . SVG Version: 6.00 Build 0)  -->
<svg version="1.1" id="Layer_3" xmlns="http://www.w3.org/2000/svg" xmlns:xlink="http://www.w3.org/1999/xlink" x="0px" y="0px"
	 viewBox="0 0 170 54" style="enable-background:new 0 0 170 54;" xml:space="preserve">
<style type="text/css">
	.st0{fill:#C1272D;}
	.st1{fill:#FFFFFF;}
</style>
<g>
	<g>
		<g>
			<g>
				<g>
					<path class="st0" d="M23.4,21.5c0,6.2-4,11-12.1,11s-12-4.5-12-11V0.9h7.3v20.3c0,4,1.4,5.9,4.7,5.9s4.8-1.9,4.8-5.9V0.9h7.3
						C23.4,0.9,23.4,21.5,23.4,21.5z"/>
				</g>
				<g>
					<path class="st0" d="M-0.7,35.1h24v5.2h-24C-0.7,40.3-0.7,35.1-0.7,35.1z"/>
				</g>
			</g>
			<g>
				<g>
					<path class="st0" d="M33.8,40.4H26V8.7h7.8V40.4z"/>
				</g>
				<g>
					<path class="st0" d="M26,1h7.8v5.2H26V1z"/>
				</g>
			</g>
		</g>
		<g>
			<g>
				<path class="st1" d="M127.2,20.6c0,12.9-6.7,20.7-17.8,20.7s-17.7-7.6-17.7-20.7C91.6,7.8,98.3,0,109.4,0S127.2,7.5,127.2,20.6z
					 M101.4,20.6c0,10,2.8,13.9,8,13.9c5.3,0,8-3.9,8-13.9s-2.7-13.8-8-13.8S101.4,10.7,101.4,20.6z"/>
			</g>
			<path class="st1" d="M133.6,42.4"/>
			<path class="st1" d="M125.5,42.4"/>
			<polygon class="st1" points="160.2,0.1 160.2,0 157.1,0 157.1,0 148.5,0 148.5,0.1 148.5,0.1 141.5,28.6 134.4,0 126,0.1 
				135.6,39.5 143.5,39.5 147.3,39.5 147.3,39.5 147.3,39.5 154.4,10.9 161.4,39.5 170,39.5 			"/>
			<g>
				<path class="st1" d="M89.1,0.9h-8.4v15.9c0,6.3,0.1,11.4,0.1,14.6L70.3,0.9h-3.4l0,0h-8.4v15.9c0,6.3,0.1,11.4,0.1,14.6
					L48.1,0.9H36.5v39.4h8.3V17.4l8,23h8.6l0,0H67V17.5l8,23h8.6l0,0H89L89.1,0.9L89.1,0.9z"/>
			</g>
		</g>
	</g>
	<g>
		<path class="st1" d="M43.1,46.3L42.5,47c-0.6-0.5-1.1-0.7-1.8-0.7c-0.8,0-1.4,0.4-1.4,1.1c0,0.7,0.3,1,1.7,1.4
			c1.2,0.4,2.3,0.9,2.3,2.4c0,1.4-1,2.3-2.8,2.3c-1.1,0-2-0.4-2.6-1l0.6-0.7c0.6,0.5,1.2,0.8,2,0.8c0.9,0,1.7-0.5,1.7-1.4
			c0-0.8-0.4-1.1-1.7-1.5c-1.5-0.5-2.3-1-2.3-2.2s1-2,2.4-2C41.8,45.4,42.5,45.7,43.1,46.3z"/>
		<path class="st1" d="M60.7,46.5h-2.2v6.9h-1.1v-6.9h-2.2v-0.9h5.6L60.7,46.5z"/>
		<path class="st1" d="M78.7,50.8c0,1.5-1,2.6-2.7,2.6c-1.8,0-2.7-1.1-2.7-2.6v-5.3h1.1v5.2c0,1.2,0.5,1.8,1.6,1.8s1.6-0.6,1.6-1.8
			v-5.2h1.1V50.8z"/>
		<path class="st1" d="M97.6,49.4c0,3.2-2,3.9-3.7,3.9H92v-7.8h1.6C95.7,45.6,97.6,46.2,97.6,49.4z M93.2,46.4v6.1h0.9
			c1.2,0,2.4-0.5,2.4-3.1s-1.3-3-2.5-3H93.2z"/>
		<path class="st1" d="M111.8,53.3h-1.1v-7.8h1.1V53.3z"/>
		<path class="st1" d="M131.4,49.4c0,2.6-1.3,4-3.3,4c-1.9,0-3.3-1.4-3.3-4s1.3-4,3.3-4C130,45.4,131.4,46.8,131.4,49.4z
			 M125.9,49.5c0,2.2,0.9,3.1,2.1,3.1c1.3,0,2.1-0.9,2.1-3.1c0-2.2-0.8-3.1-2.1-3.1C126.8,46.3,125.9,47.2,125.9,49.5z"/>
	</g>
</g>
</svg>
